<svg xmlns="http://www.w3.org/2000/svg" version="1.1" xmlns:xlink="http://www.w3.org/1999/xlink" xmlns:svgjs="http://svgjs.dev/svgjs" viewBox="0 0 6.393221448301208 4.668899723647897"><g transform="matrix(0.8351125413031936,0,0,0.8351125413031936,3.1958584599292315,4.055640314799723)"><rect width="7.315064879296967" height="7.315064879296967" x="-3.6566316458223023" y="-5.7185605859745525" fill="#dce2e3"></rect><g transform="matrix(1,0,0,1,0,0)"><path d=" M -2.4960429746804897 -1.3526818378869065 Q -2.4960429746804897 -1.3526818378869065 -2.505924519762965 -1.33561271175863 Q -2.51580606484544 -1.3185435856303536 -2.5281110586266973 -1.2904573411672142 Q -2.540416052407954 -1.2623710967040749 -2.5501863380608896 -1.2293023574136206 Q -2.559956623713825 -1.196233618123166 -2.559734104854746 -1.16423439179881 Q -2.55956026199609 -1.139234996232907 -2.5514491959854615 -1.123291012785499 Q -2.5433381299748326 -1.107347029338091 -2.5243385893447465 -1.1074791499106693 Q -2.506339024537296 -1.1076043167689016 -2.4954505499178383 -1.123680420788888 Q -2.484562075298381 -1.1397565248088746 -2.4757674274678694 -1.1693183950057562 Q -2.4669727796373584 -1.198880265202638 -2.4542581962312844 -1.23996967221722 Q -2.434717624925413 -1.3061071507981288 -2.4090520318254933 -1.354286786857665 Q -2.383386438725573 -1.4024664229172008 -2.343068214481812 -1.4287474197367622 Q -2.302749990238051 -1.455028416556324 -2.235751610121431 -1.4554943154175217 Q -2.171753157472719 -1.4559393531356806 -2.1280942737580846 -1.433242395789111 Q -2.0844353900434496 -1.410545438442541 -2.0581648237954075 -1.3717271779327345 Q -2.031894257547365 -1.3329089174229276 -2.0200607572984306 -1.2849900456513754 Q -2.008227257049496 -1.2370711738798232 -2.007879571332184 -1.187072382748017 Q -2.0075249319005266 -1.136073615793575 -2.01763874689199 -1.0805019436366345 Q -2.027752561883453 -1.0249302714796942 -2.0458905214562173 -0.9728028849872106 Q -2.0640284810289815 -0.9206754984947269 -2.0887288668779966 -0.8775026952627177 L -2.2603088445538573 -0.9603115792109462 Q -2.2603088445538573 -0.9603115792109462 -2.2484482089691484 -0.9803945402358235 Q -2.2365875733844396 -1.0004775012607008 -2.2218174086183233 -1.0335810091228863 Q -2.207047243852207 -1.0666845169850718 -2.195329159411596 -1.1072669823739896 Q -2.183611074970985 -1.1478494477629073 -2.1838961772591805 -1.1888484564909885 Q -2.18411869611826 -1.2208476828153443 -2.192705412039995 -1.2332882740263529 Q -2.20129212796173 -1.2457288652373615 -2.215291789478636 -1.2456315132365143 Q -2.2362912817539944 -1.2454854852352435 -2.2476380219986924 -1.223406049422267 Q -2.258984762243391 -1.2013266136092906 -2.269237651521779 -1.1657544579050727 Q -2.279490540800167 -1.130182302200855 -2.293191192600185 -1.0870859898266545 Q -2.3137595545860767 -1.0249414608219438 -2.3399807653120845 -0.9847581544863238 Q -2.366201976038093 -0.9445748481507037 -2.402568972991733 -0.9253214969469798 Q -2.4389359699453728 -0.906068145743256 -2.490934712722451 -0.9057065525972519 Q -2.5699328027107047 -0.9051572091638995 -2.6231888087412303 -0.9417877677410856 Q -2.676444814771755 -0.9784183263182719 -2.7043648496121957 -1.038725636443236 Q -2.7322848844526364 -1.0990329465682 -2.7327716444568724 -1.1690312541527286 Q -2.7331332376028765 -1.221029996929807 -2.7209707949657176 -1.2696157457569868 Q -2.708808352328558 -1.3182014945841667 -2.691104320380823 -1.360825633904434 Q -2.6734002884330876 -1.4034497732247015 -2.657623194129989 -1.4355602589785972 L -2.4960429746804897 -1.3526818378869065 M -2.631056423718192 -1.9028246929256494 L -2.564885996615343 -2.1105395806372105 L -1.8197846810169371 -2.1103678438472557 L -1.879884426734204 -1.9217093678523514 L -2.0253784531439725 -1.9229293182913372 L -2.0827463922377274 -1.7428462275689287 L -1.9630527617166844 -1.6606365273341506 L -2.0234560415032306 -1.4710252307534133 L -2.631056423718192 -1.9028246929256494 M -2.158654685449896 -1.9328513091368054 L -2.415982478272693 -1.948707129549117 L -2.197810580386903 -1.8099374535643675 L -2.158654685449896 -1.9328513091368054 M -1.9401680884040442 -2.5376761845112528 L -1.6649296112625598 -2.3230957084636015 L -1.784824146590044 -2.169309166794291 L -2.3447648880526626 -2.6058482441405153 L -2.251308634874316 -2.725722881749414 L -1.7913758958437818 -2.7285292259675256 L -2.076078160164916 -2.950487827266099 L -1.9561836248374318 -3.1042743689354095 L -1.3962428833748133 -2.667735291589185 L -1.4915436678658904 -2.545494707185374 L -1.9401680884040442 -2.5376761845112528 M -1.2958408996169517 -2.7521838936915746 L -1.6625016474077527 -3.3601805187064597 L -1.4287226634231562 -3.5011641583499644 Q -1.3276753370122316 -3.562102141785619 -1.2350667212252648 -3.5624819865196495 Q -1.142458105438298 -3.56286183125368 -1.066204508944971 -3.514842157974566 Q -0.9899509124516437 -3.4668224846954523 -0.9393414007847444 -3.382901823777905 Q -0.8835676532334675 -3.290417830113669 -0.8803605968812118 -3.198930318454681 Q -0.8771535405289559 -3.107442806795693 -0.9233657312485375 -3.028192043841025 Q -0.9695779219681192 -2.9489412808863564 -1.0620619156323552 -2.8931675333350797 L -1.2958408996169517 -2.7521838936915746 M -1.108895389169177 -3.280649953267231 Q -1.1372986865332533 -3.3277482833740177 -1.175000597672128 -3.353474066092458 Q -1.2127025088110028 -3.379199848810898 -1.2554082492331495 -3.3803042649445225 Q -1.2981139896552965 -3.381408681078147 -1.340930653388739 -3.35558750165626 L -1.4077246488129096 -3.3153064617581154 L -1.2166479210909429 -2.9984631501306405 L -1.1498539256667724 -3.0387441900287846 Q -1.1061809286586608 -3.0650817930391097 -1.0881752635304225 -3.103966829020702 Q -1.0701695984021842 -3.142851865002295 -1.0758472686920804 -3.189058077356038 Q -1.0815249389819765 -3.2352642897097814 -1.108895389169177 -3.280649953267231 M -0.17302449077646853 -3.9178663400386027 L -0.04750037923643613 -3.219050414760647 L -0.23942869674235356 -3.184575482717962 L -0.2885775742185916 -3.4581963661366544 L -0.5228285463540191 -3.4161192695922495 L -0.473679668877781 -3.142498386173557 L -0.6656079863836984 -3.1080234541308718 L -0.7911320979237308 -3.8068393794088276 L -0.5992037804178134 -3.8413143114515127 L -0.5528836153143085 -3.583441392546126 L -0.31863264317888107 -3.625518489090531 L -0.36495280828238597 -3.8833914079959175 L -0.17302449077646853 -3.9178663400386027 M 0.6086117475964712 -3.2959989767026787 L 0.581912954631238 -3.128108612315083 L 0.08219222298345366 -3.207576784317483 L 0.19369894654413303 -3.908765953230382 L 0.6845313647831623 -3.8307112467379065 L 0.6578325718179294 -3.6628208823503106 L 0.35958027743525955 -3.710250502794431 L 0.3438751051027695 -3.6114914649193746 L 0.5986734228204145 -3.5709721203015503 L 0.5738592505350804 -3.4149328404589614 L 0.31906093281743525 -3.4554521850767856 L 0.30147113980504636 -3.344842062656723 L 0.6086117475964712 -3.2959989767026787 M 1.2025670654599803 -3.0245834818228077 L 1.127827583974209 -2.871894222517387 L 0.6733524945121915 -3.0943540909397416 L 0.9854997407174717 -3.732056291568264 L 1.4318912811574374 -3.5135532192245678 L 1.357151799671666 -3.360863959919147 L 1.0859038213761538 -3.4936364505585757 L 1.0419394205021706 -3.403819239202446 L 1.273667825800986 -3.2903910849475695 L 1.2042040724200924 -3.148479891004884 L 0.9724756671212773 -3.2619080452597604 L 0.9232355381424162 -3.161312768540895 L 1.2025670654599803 -3.0245834818228077 M 2.010883500490152 -3.0233652270197573 L 2.151754332537976 -2.85699392938055 L 1.755943262441513 -2.225717764149284 L 1.627996359939361 -2.376825639986729 L 1.7062906929384132 -2.4994633072029377 L 1.5841595587318134 -2.64370264322959 L 1.4509385251636553 -2.5859345186708707 L 1.3223454261842196 -2.737805565598404 L 2.010883500490152 -3.0233652270197573 M 1.7854708438540756 -2.6071271530425366 L 1.9355532383072358 -2.8167560510389866 L 1.7021114982844916 -2.7055762236639023 L 1.7854708438540756 -2.6071271530425366 M 1.7846119595734278 -2.1637943137539852 L 2.449540648424058 -2.412731733085394 L 2.5452588392374027 -2.157061969625927 Q 2.586631537098116 -2.046552694577512 2.570020849938175 -1.9554451478424881 Q 2.5534101627782344 -1.8643376011074642 2.492220312116891 -1.7981839755375644 Q 2.431030461455548 -1.7320303499676641 2.3392515720085596 -1.6976699737782583 Q 2.238107489760858 -1.659803436753199 2.1475835316364944 -1.6734292580311432 Q 2.057059573512131 -1.6870550793090873 1.9876281304619814 -1.7470177736779515 Q 1.918196687411832 -1.806980468046816 1.8803301503867724 -1.9081245502945174 L 1.7846119595734278 -2.1637943137539852 M 2.2698295874626173 -1.8831007912323778 Q 2.3213381478665394 -1.9023846758284728 2.3535419924017567 -1.9347291096177903 Q 2.385745836936974 -1.967073543407108 2.394663601370261 -2.0088524074116787 Q 2.4035813658035483 -2.050631271416249 2.3860505616252796 -2.0974572354198147 L 2.358702507107181 -2.170505739265377 L 2.012190373480797 -2.0407777883461917 L 2.0395384279988953 -1.9677292845006296 Q 2.0574198482607287 -1.9199668012169928 2.0923431819490106 -1.89513515278003 Q 2.1272665156372925 -1.8703035043430671 2.173730290628065 -1.8674108215732403 Q 2.2201940656188377 -1.8645181388034135 2.2698295874626173 -1.8831007912323778 M 2.0133430312266034 -1.4789779298757835 L 2.723292883212018 -1.4874163933548805 L 2.7271674453165047 -1.1614394190629858 Q 2.72778547362765 -1.1094430918753218 2.707309903911293 -1.0651966112831819 Q 2.686834334194936 -1.020950130691042 2.651717166710216 -0.988530467709294 Q 2.6165999992254965 -0.9561108047275458 2.5728110972868006 -0.9380890937376514 Q 2.5290221953481047 -0.920067382747757 2.4840253737433953 -0.9195325505554198 Q 2.44302826961466 -0.9190452590024016 2.404888331674949 -0.930592775356795 Q 2.3667483937352376 -0.9421402917111883 2.334977259935858 -0.9647642846634038 Q 2.3032061261364776 -0.9873882776156192 2.2798274255350757 -1.0191126587473291 L 2.020628634202218 -0.8660212266827425 L 2.0180852099986595 -1.0800061116473605 L 2.2345841674605373 -1.2075882476144306 L 2.2336452398339897 -1.2865826677649206 L 2.0156606373933976 -1.283991702922043 L 2.0133430312266034 -1.4789779298757835 M 2.4036332325628917 -1.2886031449359718 L 2.4050951072219466 -1.1656118325497664 Q 2.405237729139903 -1.1536126801218438 2.414367830218972 -1.1427204235013824 Q 2.4234979312980407 -1.1318281668809207 2.440585869269654 -1.1245307443305743 Q 2.457673807241267 -1.117233321780228 2.4816721120971117 -1.117518565616141 Q 2.5066703463219504 -1.1178156946118838 2.5230681570517914 -1.1265111993855192 Q 2.5394659677816325 -1.1352067041591547 2.5483167676047027 -1.1478127877100415 Q 2.557167567427773 -1.160418871260928 2.5570249455098164 -1.1724180236888506 L 2.55562249664991 -1.2904096892300885 L 2.4036332325628917 -1.2886031449359718" fill="#404040" fill-rule="nonzero"></path></g><g transform="matrix(1,0,0,1,0,0)"><g clip-path="url(#SvgjsClipPath3834)"><g clip-path="url(#SvgjsClipPath38296b7bd997-f02a-4d2e-9d71-6a1655e7f11c)"><path d=" M 0.585335408886954 -0.9784937957931816 C 0.3014647382471576 -0.9784937957931816 0.11044343279579616 -1.2558590968974856 0.10801870415074721 -1.259525759726576 C 0.08489507243821537 -1.2909880923891532 0.04887898110078992 -1.3297246109868746 0.013099448655567336 -1.3266493453882782 C -0.024335996035056207 -1.3237514989588306 -0.05662628482033272 -1.2776225149798623 -0.06685745690797584 -1.2584612447116763 C -0.09007545478641177 -1.1852746082641428 -0.14260442209568347 -1.1249937101901106 -0.21192719754952272 -1.0919829243260426 C -0.26366431034493143 -1.073880772748293 -0.32063858365433595 -1.0784550359276737 -0.3688248828010574 -1.1045796853356806 C -0.4187227403574554 -1.1295249176791469 -0.44339576486153853 -1.1867873115939984 -0.42725492917441565 -1.240187070289231 L -0.37899691516565026 -1.4057782948291093 C -0.3545825462706782 -1.489927328837805 -0.29410659725254296 -1.5589158308516868 -0.21387880841016815 -1.5941383127432225 L -0.03155104224715033 -1.6743317771989634 C 0.04214919592900723 -1.7025423580134655 0.12313193617303742 -1.7054754600875437 0.19867989958633325 -1.6826704781490125 L 0.6950987348676756 -1.5651598484487432 L 0.8976522863137804 -1.0916280859877343 L 0.8697383370342007 -1.0729399335039493 C 0.7866637171261501 -1.0134333900960275 0.6875038044361446 -0.980503803785792 0.585335408886954 -0.9784937957931816 Z M 0.017180089546013466 -1.4078481851358724 C 0.08292919235863816 -1.4013545324291934 0.14146398671624238 -1.3634259250913026 0.17425519396669986 -1.306068721766894 C 0.18608313857669123 -1.2883268048519114 0.4452925447046556 -0.9150960126836265 0.7963459407292028 -1.1223216022506786 L 0.6366686884943185 -1.4956706738650563 L 0.1812928210096474 -1.6035415287081762 C 0.12252305021051213 -1.6223768344922127 0.059163354196729134 -1.6211703793481556 0.0011532245994767543 -1.6001114247712813 L -0.18117454156354085 -1.5199179603155404 C -0.23948755824665313 -1.4943531228331928 -0.2834439557042907 -1.4442224655059528 -0.3011690396319042 -1.383068641177931 L -0.34936791391761957 -1.2174774166380629 C -0.3543009367774248 -1.2018916040777303 -0.347445439523659 -1.1850012485249763 -0.33304535035583105 -1.1772624049640918 C -0.30497127129870005 -1.1610851326318852 -0.2713446150663634 -1.157602064658968 -0.24055082350569745 -1.167681769829999 C -0.19216248896162802 -1.1937667747277523 -0.1562793598346608 -1.2381945207073914 -0.14095952988956872 -1.2909880923891632 L -0.13965845598247095 -1.2938859388186108 C -0.11156131864363772 -1.3525775201623587 -0.057459404508736656 -1.3946056575907644 0.006357520227872948 -1.4073159276284202 C 0.009965043333918233 -1.4076707659667234 0.01363170616301601 -1.4078481851358724 0.017180089546013466 -1.4078481851358724 Z" fill="#404040" transform="matrix(1,0,0,1,0,0)" fill-rule="nonzero"></path></g><g clip-path="url(#SvgjsClipPath38296b7bd997-f02a-4d2e-9d71-6a1655e7f11c)"><path d=" M 0.6188084921332304 -0.7249026633549607 L 0.32281417826819303 -1.1374022316284145 L 0.45398608399299767 -1.0830528261455048 C 0.5771642504862629 -1.0349362137192668 0.7165991389268471 -1.0554916150151796 0.8206523669027337 -1.1371065330131676 L 0.862523290822103 -1.1734183229658424 L 1.0023295961122025 -0.846789632560927 Z M 0.5351257840175407 -0.9804454066538322 L 0.6503299645188576 -0.8198810585731959 L 0.8928028290236838 -0.896762698538135 L 0.8302921417598792 -1.0427195350254261 C 0.7426661682937439 -0.9869632795429517 0.6378075738593154 -0.9648402380804277 0.5351257840175394 -0.9804454066538322 Z" fill="#404040" transform="matrix(1,0,0,1,0,0)" fill-rule="nonzero"></path></g><g clip-path="url(#SvgjsClipPath38296b7bd997-f02a-4d2e-9d71-6a1655e7f11c)"><path d=" M -1.7564793444452598 -2.1695678180193223 L -1.7564793444452598 -0.748676832021046 L -1.47858178583351 -0.638558667702025 L -0.9805070383067688 -1.855003631116599 L -1.7564793444452598 -2.1695678180193223 Z" fill="#bab9b4" transform="matrix(1,0,0,1,0,0)" fill-rule="nonzero"></path></g><g clip-path="url(#SvgjsClipPath38296b7bd997-f02a-4d2e-9d71-6a1655e7f11c)"><path d=" M -0.9586844805013345 -0.8199401982962444 L -1.342383003649458 -0.9692088592743371 L -1.3130497010166793 -1.0447302856091327 L -1.002329596112203 -0.9238486916950197 L -0.7191686021490071 -1.585740472070143 L -1.0364532163120286 -1.7193371064399967 L -1.005050023372501 -1.7940305766520928 L -0.6125988212129838 -1.628735050727462 L -0.9586844805013345 -0.8199401982962444 Z" fill="#404040" transform="matrix(1,0,0,1,0,0)" fill-rule="nonzero"></path></g><g clip-path="url(#SvgjsClipPath38296b7bd997-f02a-4d2e-9d71-6a1655e7f11c)"><path d=" M 1.7564793444452598 -2.0926861780543775 L 1.7564793444452598 -0.6717951920561012 L 1.4785817858335093 -0.5616770277370808 L 0.9804478985837191 -1.7781219911516541 L 1.7564793444452598 -2.0926861780543775 Z" fill="#bab9b4" transform="matrix(1,0,0,1,0,0)" fill-rule="nonzero"></path></g><g clip-path="url(#SvgjsClipPath38296b7bd997-f02a-4d2e-9d71-6a1655e7f11c)"><path d=" M 0.9586253407782841 -0.7430585583313001 L 0.6125988212129834 -1.551912550485567 L 1.004990883649451 -1.7171489366871482 L 1.0364532163120284 -1.6425146061981017 L 0.7191686021490067 -1.5088588321051981 L 1.0022704563891531 -0.8469670517300751 L 1.313049701016679 -0.9678486456441879 L 1.3423830036494577 -0.8923272193093923 L 0.9586253407782841 -0.7430585583313001 Z" fill="#404040" transform="matrix(1,0,0,1,0,0)" fill-rule="nonzero"></path></g><g clip-path="url(#SvgjsClipPath38296b7bd997-f02a-4d2e-9d71-6a1655e7f11c)"><path d=" M 0.5966310959894956 -0.5033061210867744 C 0.5553706280056867 -0.5033203688932879 0.5159655075744787 -0.5204530299503314 0.48781400557757615 -0.5506178995267403 L 0.11730364066959198 -0.943778778362854 C 0.1099280197369279 -0.9515919461098961 0.10596382962145134 -0.9620184488358865 0.10628557780350945 -0.9727581812577395 C 0.10660732598557021 -0.9834979136795876 0.1111885748475352 -0.9936684063535635 0.11901869263804077 -1.001026030275221 C 0.1268241580673286 -1.0084091805742952 0.13724618059861293 -1.0123838025721565 0.14798581258328558 -1.0120731520602069 C 0.158725444567956 -1.0117625015482572 0.1689002970595419 -1.007192102173701 0.17626594455039912 -0.9993701180298125 L 0.5467763094583808 -0.6061500994706475 C 0.5631730171181564 -0.5883219456357467 0.5878436535384977 -0.5806095528973909 0.6114751664750335 -0.5859243141875619 C 0.6352237999385604 -0.590686074028707 0.6546314780424736 -0.6077495029772142 0.6623944680210461 -0.6306930845363836 C 0.6688852722360734 -0.6487886008658779 0.6654787781274745 -0.668958631772061 0.6534052301174544 -0.683918835281327 L 0.3835506738404988 -1.0223754702962378 C 0.36962063574290815 -1.0398544154158258 0.37247875688150045 -1.065312864816991 0.3899377639298949 -1.0792678838702967 C 0.4074514770587496 -1.0931905286235797 0.43293056534915286 -1.090306602742321 0.44688931722700276 -1.0728216540578566 L 0.7167438735039584 -0.7344241587659974 C 0.7462401453416796 -0.6976681621883818 0.7546085848298791 -0.6482630434986956 0.7388621299246443 -0.6038436502716937 C 0.7216368894739593 -0.55428100415269 0.6796446177299418 -0.5174086457550009 0.6282708478212207 -0.5067362250236591 C 0.6178736386330714 -0.5044870597436806 0.6072687520656788 -0.5033373711064768 0.5966310959894956 -0.5033061210867744 Z" fill="#404040" transform="matrix(1,0,0,1,0,0)" fill-rule="nonzero"></path></g><g clip-path="url(#SvgjsClipPath38296b7bd997-f02a-4d2e-9d71-6a1655e7f11c)"><path d=" M 0.41164204228922885 -0.3696503469938692 C 0.35635984579297353 -0.36962596534436454 0.30350616530819097 -0.3923631010608055 0.26550778663278307 -0.4325158725959821 L -0.046335973009641984 -0.7586714452164915 C -0.053764531814688654 -0.766430596425292 -0.057801895432686656 -0.7768257947387514 -0.05755782489966288 -0.7875648981918373 C -0.05731375436663777 -0.798304001644923 -0.05280829434990553 -0.8085050448757707 -0.04503489910254288 -0.8159186971288386 C -0.028878953339692703 -0.8313723017716761 -0.0032582006509003225 -0.8308164796575563 0.012212352809816585 -0.8146767629447997 L 0.32405611245224075 -0.48846205060123893 C 0.35380094474125534 -0.45711192969323466 0.3979791135162205 -0.4439553511289458 0.4400291093532067 -0.4539244523400652 C 0.4808510318389334 -0.46293200424630965 0.5137916966092757 -0.49298867100666155 0.526491384452245 -0.5328168428887061 L 0.5279698775284929 -0.5375480207327061 C 0.5345389652221268 -0.5588905515619722 0.5570622477120157 -0.5709697826865257 0.5784752010131584 -0.5646340138895765 C 0.5998827893886765 -0.5581477704041833 0.6119817963144139 -0.535538247615164 0.6055020544469885 -0.5141286904049163 L 0.6035504435863406 -0.5078598797616203 C 0.5821880651866385 -0.44085684768229627 0.5268312551436793 -0.39025198512471126 0.45818500432954656 -0.3749729220683782 C 0.442919259465292 -0.37145961794644466 0.4273068341105628 -0.36967420716889765 0.41164204228922974 -0.3696503469938692 Z" fill="#404040" transform="matrix(1,0,0,1,0,0)" fill-rule="nonzero"></path></g><g clip-path="url(#SvgjsClipPath38296b7bd997-f02a-4d2e-9d71-6a1655e7f11c)"><path d=" M 0.21115838114987362 -0.25012896670990803 C 0.20737343887467663 -0.25012896670990803 0.20370677604557885 -0.25012896670990803 0.20009925293953112 -0.25048380504820633 C 0.14642142969969152 -0.25419296062770047 0.0964409438469831 -0.2791619171461046 0.061239183218229964 -0.3198547001858105 L -0.19661000927958505 -0.6062092391936988 C -0.2115665078458453 -0.6228572340577896 -0.21021695397014906 -0.6484722958553466 -0.19359388340403738 -0.6634564911060559 C -0.17693418890969048 -0.6783798396614167 -0.1513459450109349 -0.6770316987122049 -0.13634663149168014 -0.6604403652305058 L 0.12150256100613488 -0.37402668649956605 C 0.14249177824001213 -0.34956007822457047 0.17219414247969267 -0.33424214466667856 0.20429817327607758 -0.3313278064574976 C 0.2583312547772272 -0.33175955596849316 0.3072025708381283 -0.3635097594150458 0.32955610669588586 -0.412704065374236 C 0.3412075831939767 -0.4317847250945741 0.36611370745033445 -0.437819365190689 0.3852065860858962 -0.4261879222296199 C 0.4042946636132203 -0.4145136226419879 0.41032732242397674 -0.3895892165028101 0.39869044294128586 -0.3704783031165635 C 0.3632258151312604 -0.2987865139306636 0.29110718367453514 -0.2525041377041053 0.21115838114987362 -0.25012896670990803 Z" fill="#404040" transform="matrix(1,0,0,1,0,0)" fill-rule="nonzero"></path></g><g clip-path="url(#SvgjsClipPath38296b7bd997-f02a-4d2e-9d71-6a1655e7f11c)"><path d=" M -0.1594111234811606 -1.538251274461027 C -0.32519241408786304 -1.5694738904068957 -0.49431923666776045 -1.5790951153867603 -0.6625718871901978 -1.566874900417203 L -0.6692546758948443 -1.6476006223804014 C -0.49270452771180007 -1.6608456684559574 -0.3151775614950192 -1.6506239970506256 -0.14131436822787458 -1.617202804732724 Z" fill="#404040" transform="matrix(1,0,0,1,0,0)" fill-rule="nonzero"></path></g><g clip-path="url(#SvgjsClipPath38296b7bd997-f02a-4d2e-9d71-6a1655e7f11c)"><path d=" M 0.013927404778265373 -0.18750000000000067 C -0.024105472356150903 -0.1874764818153125 -0.060668857267528686 -0.2021866204405316 -0.08808861748291097 -0.22854296779667083 L -0.2089702113970251 -0.34457510442068573 C -0.4393709221739912 -0.5704725911362898 -0.6864878781657786 -0.7786636842202446 -0.9482167495214819 -0.967375527859778 L -0.902146905265575 -1.0340259957370839 C -0.6366816993945665 -0.8427438071714446 -0.3860261695621201 -0.631706045442495 -0.1523143567151617 -0.4027094521787886 L -0.031787601139352084 -0.2869730141700204 C -0.013817108192778038 -0.2695690526808008 0.012448646937811558 -0.26382127191551996 0.03604566119894881 -0.2721289436844849 C 0.0579075309568875 -0.2790560756588094 0.0739505510722882 -0.2977805719934985 0.07744346733391838 -0.32044609741629926 L 0.15805090985101033 -0.3118116978510084 L 0.1574595126205114 -0.3076719172375071 C 0.14935735643814785 -0.2550671994712641 0.11221704283365885 -0.2115612834117493 0.06153488183347933 -0.1953064434425973 C 0.046195260236572944 -0.19013498557793418 0.030115300385634036 -0.18749827166448996 0.013927404778265373 -0.18749999999999578 Z" fill="#404040" transform="matrix(1,0,0,1,0,0)" fill-rule="nonzero"></path></g><g clip-path="url(#SvgjsClipPath38296b7bd997-f02a-4d2e-9d71-6a1655e7f11c)"><path d=" M -0.6857546586257797 -0.6327038351200804 C -0.7160962544852518 -0.6326286461074295 -0.7455247538088468 -0.6430791075149556 -0.769023388680121 -0.6622736966450584 C -0.7949151895882763 -0.6833403614497238 -0.810981137509953 -0.7141459073980807 -0.8134373206906395 -0.747434897837 C -0.8161460217808708 -0.7807051713537689 -0.8049969349846731 -0.8136174467713366 -0.7826255249816125 -0.8383917918878365 L -0.7508674937037836 -0.8738756257178122 L -0.6904858364697772 -0.8198219188501494 L -0.7223030074706551 -0.7843380850201738 C -0.729799784037291 -0.7759466959385846 -0.7335576915941286 -0.7648651389954151 -0.7327115987274473 -0.7536445687572495 C -0.7318830380995256 -0.7424021531027747 -0.7264472262729329 -0.7320013477967773 -0.7176901090727603 -0.7249026633549607 C -0.6968058303555265 -0.707683550452135 -0.6660256637964741 -0.7101438698879761 -0.6481417947660093 -0.73046179732167 L -0.6170343004417305 -0.7655316530902911 L -0.5564752240385751 -0.7117736448378802 L -0.5875235786398025 -0.6767629287923056 C -0.612431051105589 -0.6486654324458196 -0.6482067650661385 -0.6326191308801263 -0.6857546586257797 -0.6327038351200804 Z" fill="#404040" transform="matrix(1,0,0,1,0,0)" fill-rule="nonzero"></path></g><g clip-path="url(#SvgjsClipPath38296b7bd997-f02a-4d2e-9d71-6a1655e7f11c)"><path d=" M -0.5670020947414662 -0.4487201567116641 C -0.6012155289504069 -0.44874785387710925 -0.6342616212657046 -0.46116377285889576 -0.6600288790990498 -0.4836717330341824 C -0.6886555958642855 -0.508289432505802 -0.7062278231161243 -0.5433486883318923 -0.7088191506152639 -0.5810157171744177 C -0.7116071381673716 -0.6186338674238665 -0.6992108824791616 -0.6558013350800946 -0.6743998318001891 -0.6842145338965939 L -0.6093461364452366 -0.7590262835547898 L -0.5481956628115812 -0.7058005328098262 L -0.6132493581665337 -0.630929643428584 C -0.6239046522409226 -0.6187132329051921 -0.6292286778745007 -0.6027411560044567 -0.628034288929024 -0.5865748511411168 C -0.6269068534089406 -0.5703914299928206 -0.619345885391523 -0.5553333894623556 -0.6070396872462904 -0.544763066944794 C -0.5821010346102378 -0.5229855109637358 -0.5443213695836895 -0.5251676349701431 -0.5220559052234992 -0.5496716639579433 L -0.45238931147065053 -0.6256662080771367 L -0.39271733091324323 -0.5709028245328722 L -0.46238392466609324 -0.49490828041367885 C -0.48923685334769784 -0.465522984713836 -0.5271953941894068 -0.44876457861017305 -0.5670020947414662 -0.4487201567116641 Z" fill="#404040" transform="matrix(1,0,0,1,0,0)" fill-rule="nonzero"></path></g><g clip-path="url(#SvgjsClipPath38296b7bd997-f02a-4d2e-9d71-6a1655e7f11c)"><path d=" M -0.3933678678667909 -0.33996220602279337 C -0.4290837167591872 -0.3398792955161014 -0.4634977236121114 -0.3533658657692693 -0.48964733699212126 -0.3776933493286714 C -0.546141399917321 -0.4307411355849162 -0.5496425687693547 -0.5192970154212806 -0.4975129201577644 -0.5766393776687309 L -0.4523893114706481 -0.6258436272462957 L -0.3927173309132421 -0.5710802437020315 L -0.4377817998773095 -0.5219351338475129 C -0.46004699925933146 -0.4974594827400962 -0.458545980610658 -0.4596443462577233 -0.4344108356634635 -0.4370104915477717 C -0.4101099536831774 -0.4144856680544369 -0.372204133894924 -0.41572545478376366 -0.3494270536406734 -0.4397900585311214 L -0.30211527520070636 -0.48976312450833914 L -0.24297555215074884 -0.434230924564432 L -0.2902873305907161 -0.3841987188641678 C -0.31705865814645784 -0.3558428713614301 -0.3543711925200286 -0.33983037812480643 -0.3933678678667909 -0.33996220602279337 Z" fill="#404040" transform="matrix(1,0,0,1,0,0)" fill-rule="nonzero"></path></g><g clip-path="url(#SvgjsClipPath38296b7bd997-f02a-4d2e-9d71-6a1655e7f11c)"><path d=" M -0.2278949227730105 -0.23516661677826978 C -0.2627875405114892 -0.23509055215046093 -0.2963643386611079 -0.24847890321075328 -0.3216313838071929 -0.2725429217458397 C -0.37551378385969336 -0.32415845595590165 -0.3777566581912015 -0.40954600109425887 -0.3266582602664423 -0.4639190655354928 L -0.3089163433514521 -0.48284377691148817 L -0.2497766203014946 -0.42731157696758104 L -0.26751853721648255 -0.40838686559159054 C -0.2881056116965093 -0.38642230082709794 -0.2871825998867772 -0.351980774441059 -0.265448646909733 -0.33115038728834345 C -0.2437213268850722 -0.3106065439997976 -0.209554020631469 -0.3112110424950567 -0.18856700694478912 -0.33251060091849993 L -0.1637874629868563 -0.35788154210692547 L -0.10583053439789891 -0.30128482714811833 L -0.13061007835583172 -0.27591388595968813 C -0.15621120796704258 -0.2497601165446819 -0.1912967382736348 -0.23506471813662855 -0.2278949227730105 -0.23516661677826978 Z" fill="#404040" transform="matrix(1,0,0,1,0,0)" fill-rule="nonzero"></path></g></g></g></g><defs><clipPath id="SvgjsClipPath3834"><path d=" M -1.7564793444452598 -2.1695678180193223 h 3.5129586888905195 v 1.9820678180193223 h -3.5129586888905195 Z"></path></clipPath><clipPath id="SvgjsClipPath38296b7bd997-f02a-4d2e-9d71-6a1655e7f11c"><path d=" M -1.7564793444452598 -2.1695678180193223 L 1.7564793444452598 -2.1695678180193223 L 1.7564793444452598 -0.1875 L -1.7564793444452598 -0.1875 Z"></path></clipPath></defs></svg>